<svg xmlns="http://www.w3.org/2000/svg" viewBox="0 0 387.04 348.77"><title>baby</title><g id="圖層_2" data-name="圖層 2"><g id="Capa_1" data-name="Capa 1"><circle cx="112.81" cy="214.04" r="15.37"/><circle cx="274.23" cy="214.04" r="15.37"/><path d="M387,207.51a45.39,45.39,0,0,0-37.33-44.6V156.2C349.71,70.07,279.65,0,193.52,0S37.32,70.07,37.32,156.2v6.71a45.32,45.32,0,0,0,.55,89.31c3,34.41,18.77,59.83,46.94,75.65,25.06,14.07,60.62,20.9,108.71,20.9s83.65-6.83,108.71-20.9c28.17-15.82,43.92-41.24,46.94-75.66A45.37,45.37,0,0,0,387,207.51Zm-371,0a29.37,29.37,0,0,1,21.32-28.2v56.41A29.37,29.37,0,0,1,16,207.51Zm317.71,32.11c0,35.14-12.86,59.44-39.32,74.3-22.6,12.69-55.6,18.85-100.87,18.85s-78.27-6.16-100.87-18.85c-26.46-14.86-39.33-39.16-39.33-74.3V156.2c0-63.31,42.19-116.95,99.92-134.29,44,.55,67.41,32.3,67.41,55.29a32,32,0,0,1-31.94,31.94,24,24,0,0,1-23.94-24,17.58,17.58,0,0,1,17.56-17.56,8,8,0,1,0,0-16,33.59,33.59,0,0,0-33.56,33.56,40,40,0,0,0,39.94,40A48,48,0,0,0,236.65,77.2c0-16.6-8.34-34.47-22.32-47.79A81.34,81.34,0,0,0,195.44,16c76.42,1,138.27,63.51,138.27,140.18v83.42Zm16-3.9V179.31a29.31,29.31,0,0,1,0,56.41Z"/><path d="M224.46,236.07a43.81,43.81,0,0,1-61.88,0,8,8,0,0,0-11.31,11.31,59.8,59.8,0,0,0,84.5,0,8,8,0,0,0-11.31-11.31Z"/></g></g></svg>