<svg xmlns="http://www.w3.org/2000/svg" viewBox="0 0 457.99 512"><title>bill</title><g id="圖層_2" data-name="圖層 2"><g id="Capa_1" data-name="Capa 1"><path d="M448,246H374V10a10,10,0,0,0-17.07-7.07L328.58,31.26,300.25,2.93a10,10,0,0,0-14.14,0L257.78,31.26,229.45,2.93a10,10,0,0,0-14.14,0L187,31.26,158.65,2.93a10,10,0,0,0-14.14,0L116.18,31.26,87.86,2.93a10,10,0,0,0-14.14,0L45.39,31.26,17.06,2.93A10,10,0,0,0,0,10.26V460a52.06,52.06,0,0,0,52,52H406a52.06,52.06,0,0,0,52-52V256A10,10,0,0,0,448,246ZM52,492h0a32,32,0,0,1-32-32V34.16L38.32,52.47a10,10,0,0,0,14.14,0L80.79,24.14l28.33,28.33a10,10,0,0,0,14.14,0l28.33-28.33,28.33,28.33a10,10,0,0,0,14.14,0l28.33-28.33,28.32,28.33a10,10,0,0,0,14.15,0l28.32-28.33,28.33,28.33a10,10,0,0,0,14.14,0L354,34.14V256a2.45,2.45,0,0,0,0,.27V460a51.77,51.77,0,0,0,11.05,32Zm386-32a32,32,0,0,1-64,0V266h64Z"/><path d="M187,209.68c-9.92,0-18-6.92-18-15.41a10,10,0,1,0-20,0c0,16.3,11.89,30,28,34.15v8.16a10,10,0,1,0,20,0v-8.16c16.12-4.1,28-17.85,28-34.15,0-19.53-17.05-35.42-38-35.42-9.92,0-18-6.91-18-15.41S177.07,128,187,128s18,6.92,18,15.41a10,10,0,0,0,20,0c0-16.3-11.88-30-28-34.15v-6.78a10,10,0,1,0-20,0v6.78c-16.12,4.1-28,17.85-28,34.15,0,19.53,17,35.41,38,35.41,9.93,0,18,6.92,18,15.42S196.92,209.68,187,209.68Z"/><path d="M268,178.86h19.49a10,10,0,0,0,0-20H268a10,10,0,0,0,0,20Z"/><path d="M106,158.86H86.53a10,10,0,0,0,0,20H106a10,10,0,0,0,0-20Z"/><path d="M292.52,270H134.09a10,10,0,0,0,0,20H292.52a10,10,0,0,0,0-20Z"/><path d="M81.46,270a10,10,0,1,0,7.07,2.93A10.08,10.08,0,0,0,81.46,270Z"/><path d="M292.52,336H134.09a10,10,0,0,0,0,20H292.52a10,10,0,0,0,0-20Z"/><path d="M81.46,336a10,10,0,1,0,7.07,2.93A10.08,10.08,0,0,0,81.46,336Z"/><path d="M292.52,402H134.09a10,10,0,0,0,0,20H292.52a10,10,0,0,0,0-20Z"/><path d="M81.46,402a10,10,0,1,0,7.07,2.93A10.08,10.08,0,0,0,81.46,402Z"/></g></g></svg>