<svg xmlns="http://www.w3.org/2000/svg" viewBox="0 0 512 472"><title>boxes</title><g id="圖層_2" data-name="圖層 2"><g id="圖層_1-2" data-name="圖層 1"><path d="M238,20a10,10,0,0,0,0-20h0a10,10,0,0,0,0,20Z"/><polygon points="294.86 60 217.14 60 256 98.86 294.86 60" style="fill:none"/><polygon points="309 151.85 309 74.14 270.14 113 309 151.85" style="fill:none"/><polygon points="217.14 166 294.86 166 256 127.14 217.14 166" style="fill:none"/><polygon points="203 74.14 203 151.85 241.85 113 203 74.14" style="fill:none"/><path d="M502,412H472V216a10,10,0,0,0-10-10H369V10A10,10,0,0,0,359,0H283a10,10,0,0,0,0,20h66V206H163V20h30a10,10,0,0,0,0-20H153a10,10,0,0,0-10,10V206H50a10,10,0,0,0-10,10V412H10A10,10,0,0,0,0,422v40a10,10,0,0,0,10,10H502a10,10,0,0,0,10-10V422A10,10,0,0,0,502,412ZM60,226H246V412H60ZM80,452H20V432H80Zm126,0H100V432H206Zm80,0H226V432h60Zm126,0H306V432h8a10,10,0,0,0,0-20H266V226H452V412H404a10,10,0,0,0,0,20h8Zm80,0H432V432h60Z"/><path d="M183,50V176a10,10,0,0,0,10,10H319a10,10,0,0,0,10-10V50a10,10,0,0,0-10-10H193A10,10,0,0,0,183,50Zm34.14,116L256,127.14,294.86,166ZM309,151.86,270.14,113,309,74.14ZM294.86,60,256,98.86,217.14,60ZM203,74.14,241.86,113,203,151.86Z"/><path d="M216,246H90a10,10,0,0,0-10,10V382a10,10,0,0,0,10,10H216a10,10,0,0,0,10-10V256A10,10,0,0,0,216,246Zm-24.14,20L153,304.86,114.14,266ZM100,280.14,138.86,319,100,357.86ZM114.14,372,153,333.14,191.86,372ZM206,357.86,167.14,319,206,280.14Z"/><path d="M432,382V256a10,10,0,0,0-10-10H296a10,10,0,0,0-10,10V382a10,10,0,0,0,10,10H422A10,10,0,0,0,432,382ZM397.86,266,359,304.86,320.14,266ZM306,280.14,344.86,319,306,357.86ZM320.14,372,359,333.14,397.86,372ZM412,357.86,373.14,319,412,280.14Z"/><path d="M359,412h0a10,10,0,1,0,10,10A10,10,0,0,0,359,412Z"/></g></g></svg>