<svg xmlns="http://www.w3.org/2000/svg" viewBox="0 0 300 300"><title>purchases</title><g id="圖層_2" data-name="圖層 2"><g id="Capa_1" data-name="Capa 1"><path d="M150,0C67.29,0,0,67.29,0,150S67.29,300,150,300s150-67.29,150-150S232.71,0,150,0Zm15,20h.67a10,10,0,0,1,0,20H165a10,10,0,0,1,0-20ZM107.09,262.55a10,10,0,0,1-13.35,4.68A130.08,130.08,0,0,1,35.17,89a10,10,0,1,1,17.65,9.39A110.09,110.09,0,0,0,102.41,249.2,10,10,0,0,1,107.09,262.55ZM135,280h-.67a10,10,0,0,1,.09-20H135a10,10,0,0,1,0,20ZM150,139.36c23.16,0,42,17.51,42,39,0,18.32-13.65,33.73-32,37.91v4.32a10,10,0,0,1-20,0v-4.32c-18.34-4.18-32-19.59-32-37.91a10,10,0,0,1,20,0c0,10.5,9.87,19,22,19s22-8.54,22-19-9.87-19-22-19c-23.16,0-42-17.52-42-39,0-18.33,13.66-33.74,32-37.92V77.2a10,10,0,1,1,20,0v5.2c18.35,4.18,32,19.59,32,37.92a10,10,0,0,1-20,0c0-10.5-9.87-19-22-19s-22,8.55-22,19S137.82,139.36,150,139.36ZM256,216.29a10,10,0,0,1-8.82-14.7A110.09,110.09,0,0,0,197.59,50.8a10,10,0,0,1,8.67-18A130.09,130.09,0,0,1,264.83,211,10,10,0,0,1,256,216.29Z"/></g></g></svg>