<svg xmlns="http://www.w3.org/2000/svg" viewBox="0 0 512 512"><title>shoppings</title><g id="圖層_2" data-name="圖層 2"><g id="Capa_1" data-name="Capa 1"><path d="M446,47.43V30A30,30,0,0,0,416,0H96A30,30,0,0,0,66,30V47.43C.77,167.9,0,164.32,0,170H0v20c0,17.33,10,33.45,26,42.62V502a10,10,0,0,0,10,10H476a10,10,0,0,0,10-10V232.62c15.82-9.16,26-25.47,26-42.62V170h0C512,164.26,510.59,166.72,446,47.43ZM485.09,160H423.21L389.88,60h40.21ZM346,180h60v10a30,30,0,0,1-60,0Zm-1.53-20L327.8,60h41l33.34,100ZM86,30A10,10,0,0,1,96,20H416a10,10,0,0,1,10,10V40H86ZM326,180v10a30,30,0,0,1-60,0V180Zm-60-20V60h41.53L324.2,160Zm-78.2,0L204.47,60H246V160ZM246,180v10a30,30,0,0,1-60,0V180ZM109.87,160,143.21,60h41L167.53,160ZM166,180v10a30,30,0,0,1-60,0V180ZM81.91,60h40.22L88.79,160H26.91ZM20,190V180H86v10c0,15.7-15.73,30-33,30a33.67,33.67,0,0,1-13.07-2.74C28,212.19,20,201.23,20,190ZM206,492H106V406H206Zm0-106H106V300H206ZM466,492H226V290a10,10,0,0,0-10-10H96a10,10,0,0,0-10,10V492H46V239.51a51.14,51.14,0,0,0,7,.49,55.09,55.09,0,0,0,36.5-14.31,53.94,53.94,0,0,0,6-6.41A49.93,49.93,0,0,0,176,220a49.94,49.94,0,0,0,80,0,49.94,49.94,0,0,0,80,0,49.93,49.93,0,0,0,80.49-.68A55.05,55.05,0,0,0,459,240a52.88,52.88,0,0,0,7-.48Zm26-302c0,11.55-8.31,22.63-20.67,27.58A33.45,33.45,0,0,1,459,220c-17.27,0-33-14.3-33-30V180h66Z"/><circle cx="416" cy="436" r="10"/><path d="M436,386H426V290a10,10,0,0,0-10-10H296a10,10,0,0,0-10,10v96H276a10,10,0,0,0,0,20H436a10,10,0,0,0,0-20Zm-30,0H306V300H406Z"/><path d="M376,426H296a10,10,0,0,0,0,20h80a10,10,0,0,0,0-20Z"/></g></g></svg>